# xmcd
#
# Track frame offsets:
#	150
#	50132
#	65783
#	94728
#	108532
#	119168
#	139655
#	151288
#	167367
#	199861
#	215523
#	227954
#	240304
#	257487
#	275679
#	310421
#
# Disc length: 4456 seconds
#
# Revision: 3
# Processed by: cddbd v1.5.2PL0 Copyright (c) Steve Scherf et al.
# Submitted via: EZCDAudioConverter 1.2.3.1
#
DISCID=f1116610
DTITLE=Creedence Clearwater Revival - Anniversary II
DYEAR=2002
DGENRE=Country
TTITLE0=I Heard It Through The Grapevine (lo supe por ahi)
TTITLE1=Lookin' For a Reason (buscando una razon)
TTITLE2=Pagan Baby 
TTITLE3=Bootleg (Contrabandista)
TTITLE4=Bad Moon Rising (Amanecer en la luna)
TTITLE5=I Put A Spell On You (Te hechice)
TTITLE6=Lookin' Out My Back Door (Mirando desde mi puerta)
TTITLE7=Long As I Can See The Light (Mientras pueda ver la luz)
TTITLE8=Ramble Tamble 
TTITLE9=Before You Accuse Me (No me acuces)
TTITLE10=Hey Tonight (Esta noche)
TTITLE11=Commotion (Conmoción)
TTITLE12=Sailor's Lament (El lamento del marinero)
TTITLE13=Someday Never Comes (Ese día nunca vendrá)
TTITLE14=Keep On Chooglin' (Seguir rumiando)
TTITLE15=Born On Bayou (Nacido en Bayou)
EXTD=
EXTT0=
EXTT1=
EXTT2=
EXTT3=
EXTT4=
EXTT5=
EXTT6=
EXTT7=
EXTT8=
EXTT9=
EXTT10=
EXTT11=
EXTT12=
EXTT13=
EXTT14=
EXTT15=
PLAYORDER=
